<svg width="50" height="51" viewBox="0 0 50 51" fill="none" xmlns="http://www.w3.org/2000/svg">
<path d="M10.4166 23.5796V28.8888C10.4166 32.7665 10.4166 34.7053 10.9265 36.2744C11.9569 39.4456 14.4431 41.9319 17.6144 42.9623C19.1835 43.4721 21.1223 43.4721 25 43.4721C28.8776 43.4721 30.8165 43.4721 32.3856 42.9623C35.5568 41.9319 38.0431 39.4456 39.0735 36.2744C39.5833 34.7053 39.5833 32.7665 39.5833 28.8888V23.5865M39.5833 23.5865C37.589 24.3948 35.1253 25.2727 32.1934 26.3198L27.803 27.8878C26.4156 28.3834 25.7219 28.6311 25.0002 28.6311C24.2784 28.6311 23.5847 28.3834 22.1973 27.8878L17.8069 26.3198C8.63889 23.0455 4.05487 21.4083 4.05487 18.472C4.05487 15.5357 8.63889 13.8985 17.8069 10.6241L22.1973 9.05613C23.5847 8.56062 24.2784 8.31287 25.0002 8.31287C25.7219 8.31287 26.4156 8.56062 27.803 9.05613L32.1934 10.6242C41.3615 13.8985 45.9455 15.5357 45.9455 18.472C45.9455 20.4693 43.8252 21.8672 39.5833 23.5865Z" stroke="#2D264B" stroke-width="1.5"/>
<path d="M21.8759 7.51146L17.151 9.19909C12.6769 10.797 9.16065 12.0528 6.77487 13.2869C4.46897 14.4797 2.49225 16.0129 2.49225 18.4719V33.0796C2.49225 33.9425 3.30356 34.6177 4.16651 34.6177C5.02945 34.6177 5.72901 33.9181 5.72901 33.0552V23.0734C5.12846 22.709 4.57301 22.3113 4.09791 21.8679C3.12752 20.9623 2.49225 19.8658 2.49225 18.4719C2.49225 17.6089 3.30356 16.9094 4.16651 16.9094C4.31965 16.9094 4.46413 16.9314 4.59819 16.9725L4.16665 17.1667L4.49298 18.472H5.61738C5.61738 18.9494 5.93267 19.7029 8.21079 20.8813C10.3859 22.0065 13.7005 23.1941 18.3325 24.8484L22.7229 26.4164C24.2126 26.9484 24.6117 27.0686 25.0002 27.0686C25.3887 27.0686 25.7878 26.9484 27.2775 26.4164L31.8147 24.7959C34.6925 23.7681 37.0722 22.9183 38.9964 22.1384C41.102 21.285 42.5227 20.5704 43.4036 19.8941C44.2495 19.2447 44.383 18.8041 44.383 18.472H47.5079C47.5079 18.4719 47.5079 18.472 47.5079 18.472C47.5079 16.013 45.5311 14.4797 43.2253 13.2869C40.8395 12.0528 37.3232 10.7969 32.8491 9.19908L28.1242 7.51147C26.9371 7.08638 25.9984 6.75024 25.0001 6.75024C24.0017 6.75024 23.063 7.08638 21.8759 7.51146Z" fill="#2D264B"/>
<path d="M47.5012 18.7181C47.437 19.8629 46.9273 20.8082 46.1742 21.5996C46.9358 20.8036 47.4381 19.8645 47.5012 18.7181Z" fill="#2D264B"/>
</svg>
