<svg width="50" height="51" viewBox="0 0 50 51" fill="none" xmlns="http://www.w3.org/2000/svg">
<path fill-rule="evenodd" clip-rule="evenodd" d="M8.23941 11.0439C6.25 13.7821 6.25 17.6881 6.25 25.5C6.25 33.3119 6.25 37.2179 8.23941 39.9561C8.8819 40.8404 9.65958 41.6181 10.5439 42.2606C13.2821 44.25 17.1881 44.25 25 44.25C32.8119 44.25 36.7179 44.25 39.4561 42.2606C40.3404 41.6181 41.1181 40.8404 41.7606 39.9561C43.75 37.2179 43.75 33.3119 43.75 25.5C43.75 17.6881 43.75 13.7821 41.7606 11.0439C41.1181 10.1596 40.3404 9.3819 39.4561 8.73941C36.7179 6.75 32.8119 6.75 25 6.75C17.1881 6.75 13.2821 6.75 10.5439 8.73941C9.65958 9.3819 8.8819 10.1596 8.23941 11.0439ZM18.75 25.5C18.75 26.6506 17.8173 27.5833 16.6667 27.5833C15.5161 27.5833 14.5833 26.6506 14.5833 25.5C14.5833 24.3494 15.5161 23.4167 16.6667 23.4167C17.8173 23.4167 18.75 24.3494 18.75 25.5ZM27.0833 25.5C27.0833 26.6506 26.1506 27.5833 25 27.5833C23.8494 27.5833 22.9167 26.6506 22.9167 25.5C22.9167 24.3494 23.8494 23.4167 25 23.4167C26.1506 23.4167 27.0833 24.3494 27.0833 25.5ZM33.3333 27.5833C34.4839 27.5833 35.4167 26.6506 35.4167 25.5C35.4167 24.3494 34.4839 23.4167 33.3333 23.4167C32.1827 23.4167 31.25 24.3494 31.25 25.5C31.25 26.6506 32.1827 27.5833 33.3333 27.5833Z" fill="#2D264B"/>
</svg>
