<svg width="50" height="51" viewBox="0 0 50 51" fill="none" xmlns="http://www.w3.org/2000/svg">
<path fill-rule="evenodd" clip-rule="evenodd" d="M4.16669 21.3334C4.16669 10.978 12.5613 2.58337 22.9167 2.58337C33.272 2.58337 41.6667 10.978 41.6667 21.3334C41.6667 31.6887 33.272 40.0834 22.9167 40.0834C12.5613 40.0834 4.16669 31.6887 4.16669 21.3334ZM20.747 8.71712C20.882 9.56944 20.3005 10.3698 19.4482 10.5048C15.6596 11.1049 12.6882 14.0762 12.0881 17.8649C11.9531 18.7172 11.1528 19.2987 10.3004 19.1637C9.44811 19.0287 8.8666 18.2283 9.0016 17.376C9.81344 12.2502 13.8335 8.23013 18.9593 7.41828C19.8116 7.28329 20.612 7.8648 20.747 8.71712Z" fill="#2D264B"/>
<path d="M38.4785 36.8952C39.0887 36.285 40.078 36.285 40.6882 36.8952L49.0213 45.2284C49.6315 45.8386 49.6315 46.8279 49.0213 47.4381C48.4111 48.0483 47.4218 48.0483 46.8116 47.4381L38.4785 39.1049C37.8683 38.4947 37.8683 37.5054 38.4785 36.8952Z" fill="#2D264B"/>
</svg>
